<svg width="109" height="10" viewBox="0 0 109 10" fill="none" xmlns="http://www.w3.org/2000/svg">
<path fill-rule="evenodd" clip-rule="evenodd" d="M97.3108 0.812034C98.209 0.79603 99.0716 0.680516 99.9424 0.405262C100.571 0.205989 101.28 0.160908 102.006 0.221912C102.802 0.289484 103.623 0.042773 104.45 0.109723C104.961 0.151414 105.598 -0.201712 105.831 0.614147C106.174 0.660481 106.518 0.706807 106.949 0.764878C106.97 1.12905 106.993 1.48193 107.006 1.83399C107.009 1.90899 106.95 2.0463 106.959 2.04968C107.697 2.33515 107.502 3.29949 108.179 3.65777C108.546 3.85248 108.785 4.58208 108.55 4.82095C108.074 5.3036 108.268 5.80861 108.344 6.35651C107.965 7.1161 107.32 7.59833 106.554 7.98148C105.798 8.36001 105.108 8.87403 104.338 9.21667C102.774 9.91256 101.179 10.5393 99.5912 11.1825C97.9527 11.8464 96.2897 12.4379 94.598 12.9675C93.0536 13.4515 91.5218 13.9756 89.9773 14.4629C89.0362 14.7598 88.1 15.0729 87.1641 15.3862C87.124 15.3996 87.1123 15.49 87.0326 15.6654C87.4002 15.6547 87.763 15.5384 88.0007 15.6639C88.3134 15.8282 88.5358 16.013 88.8233 15.6947C89.1853 16.2081 89.8017 15.5299 90.1723 16.0037C90.5176 15.8144 90.9489 15.8353 91.2482 15.9396C91.6002 16.0614 91.8458 16.247 92.2045 15.9743C92.3057 15.8971 92.6732 15.9701 92.7472 16.0834C93.0708 16.5797 93.4842 16.007 93.7879 16.2239C94.1551 16.4865 94.4608 16.4786 94.7523 16.1479C95.2821 16.4053 95.8409 16.2078 96.386 16.2732C96.8556 16.3301 97.3922 16.3999 97.7932 16.2278C98.0503 16.1169 98.1917 16.1136 98.4155 16.1882C99.1463 16.4309 99.8982 16.2293 100.646 16.3285C101.4 16.4288 102.178 16.3092 102.947 16.2963C103.913 16.2796 104.88 16.2685 105.846 16.2626C106.427 16.2591 106.731 16.7023 106.925 17.1167C107.073 17.4311 107.052 17.7663 107.528 17.7884C107.591 17.7917 107.645 18.1484 107.732 18.4384C107.456 18.4268 107.216 18.4162 106.974 18.4054C106.968 18.4691 106.961 18.5329 106.955 18.5969C107.155 18.6574 107.354 18.7177 107.582 18.7872C107.553 18.8556 107.539 19.006 107.458 19.0583C107.266 19.1831 107.052 19.3167 106.83 19.3501C105.587 19.5376 104.345 19.7581 103.091 19.8515C100.982 20.0089 98.865 20.1234 96.7478 20.1709C95.2994 20.2038 93.8464 20.2025 92.3978 20.1999C91.0941 20.1978 89.7736 20.1403 88.4684 20.1051C86.7946 20.0599 85.1292 19.9577 83.4626 19.8267C82.4031 19.7434 81.3466 19.6179 80.2887 19.5091C79.589 19.4367 79.1305 18.9281 78.5938 18.5601C78.3749 18.0964 78.451 17.5878 78.0181 17.1189C77.5255 16.5843 77.5966 14.2732 77.9796 13.5862C78.2633 13.0774 78.8503 12.8275 79.3266 12.4898C80.1604 11.898 81.0536 11.4394 82.0664 11.2199C82.1755 11.1959 82.3386 11.1363 82.3626 11.0574C82.5604 10.4013 83.3191 10.6899 83.6603 10.2902C84.4275 10.3845 85.0844 10.0197 85.7826 9.82541C85.9022 9.7921 86.0942 9.83619 86.1463 9.76562C86.8256 8.83965 87.9607 8.88305 88.8957 8.50695C89.1874 8.38945 89.5106 8.33711 89.7848 8.19171C89.9736 8.09209 90.102 7.88414 90.2571 7.72458C90.1239 7.59781 90.0609 7.48983 90.007 7.49351C88.8606 7.56881 87.7162 7.72314 86.5694 7.72575C85.076 7.72856 83.5988 7.9691 82.0932 7.83337C81.3736 7.76891 80.6464 7.97238 79.897 7.95573C78.5155 7.92463 77.1292 8.17656 75.752 8.10473C73.3858 7.98057 71.0293 8.38233 68.6652 8.03868C67.7176 8.39509 66.7113 8.03409 65.7454 8.21725C65.4851 8.26697 65.1966 8.17309 64.9211 8.16301C64.5207 8.14812 64.1203 8.14114 63.7203 8.14529C62.1088 8.16145 60.4978 8.18811 58.8865 8.20096C58.2064 8.20586 57.5243 8.16428 56.8448 8.18161C54.9262 8.23016 53.0086 8.13015 51.0905 8.08845C50.0927 8.06661 49.0977 8.20927 48.1093 7.93339C47.0003 8.30112 45.8595 8.00442 44.7347 8.01491C43.3748 8.02728 42.0134 7.98886 40.6524 7.96388C38.8945 7.93175 37.1369 7.89465 35.3791 7.85232C34.2633 7.82506 33.1472 7.78961 32.0312 7.74855C30.6782 7.69878 29.3272 7.60266 27.9718 7.57955C25.9114 7.54397 23.8506 7.37812 21.7905 7.25725C19.2185 7.10665 16.6463 6.95873 14.0752 6.78431C12.6586 6.6882 11.2435 6.55106 9.82945 6.41412C8.14497 6.25094 6.45787 6.10063 4.77859 5.88376C3.56808 5.72715 2.3686 5.50125 1.1427 5.45796C0.843318 5.44717 0.550905 5.04773 0.13728 4.7391C0.370311 4.65422 0.511899 4.56495 0.660252 4.55539C1.10688 4.52616 1.55703 4.52806 2.08748 4.51579C1.609 3.64295 0.415293 4.25747 0.0785758 3.45167C0.403763 3.40763 0.75453 3.36045 1.1053 3.31327C1.11121 3.22592 1.11749 3.13884 1.12339 3.05149C0.862374 2.9519 0.601722 2.85259 0.255121 2.7205C0.480868 2.31671 0.701444 1.92218 1.00538 1.38011C1.40767 1.37138 2.06313 1.18223 2.55273 1.39138C3.14665 1.64533 3.75811 1.15376 4.29829 1.63548C4.4389 1.76091 4.72073 1.17214 5.00143 1.57481C5.30191 2.00704 5.5447 1.19878 5.8285 1.56614C6.09332 1.90908 6.43958 1.48863 6.5199 1.55313C7.02847 1.95882 7.54578 1.56229 8.05079 1.66668C8.58918 1.77773 9.15204 1.81472 9.70082 1.80358C10.1904 1.79388 10.6434 1.81612 11.0915 2.05591C11.2496 2.1408 11.581 2.16635 11.6652 2.07135C11.9466 1.7535 12.1222 1.96437 12.3906 2.08139C12.5835 2.16551 12.8911 1.96753 13.0963 2.04143C13.3351 2.1279 13.5174 2.34708 13.6928 1.99521C14.4163 2.4758 15.2964 1.65461 16.0078 2.31028C16.0771 2.37396 16.2563 2.38457 16.3511 2.34474C17.46 1.87894 18.6035 2.24375 19.7308 2.25397C21.3735 2.26911 23.0162 2.2803 24.6583 2.30639C25.9758 2.32739 27.294 2.34041 28.6106 2.4109C29.3102 2.44845 30.0655 2.14343 30.7061 2.71094C30.7502 2.75006 30.884 2.74279 30.9412 2.7051C32.0864 1.95004 33.2658 2.90304 34.4222 2.69902C34.6159 2.66456 34.8414 2.74789 35.0201 2.68748C36.6126 2.14764 38.2705 2.59021 39.8917 2.44403C41.0817 2.33684 42.2953 2.44959 43.4975 2.44211C44.9896 2.43322 46.4807 2.39682 47.972 2.38342C48.1223 2.38215 48.2761 2.45018 48.4247 2.4972C49.6394 2.88263 50.879 2.62951 52.1067 2.70381C52.3772 2.71984 52.6983 2.64706 52.9197 2.50222C53.4242 2.17192 54.0241 2.26509 54.4284 2.45388C54.8588 2.65592 55.2049 2.62748 55.6075 2.60356C56.3998 2.55647 57.2157 2.66879 57.9541 2.28278C59.2394 2.40063 60.5282 2.28335 61.8028 2.2427C62.8527 2.20879 63.9346 2.38347 64.9845 2.06685C65.6738 1.85963 66.4201 2.04093 67.0981 2.24531C67.3809 2.33041 67.6287 2.44233 67.9106 2.36597C68.2147 2.28398 68.5159 2.07105 68.8073 2.09577C69.1267 2.12326 69.373 2.04317 69.6657 1.97885C70.4881 1.79802 71.3443 1.66858 72.1244 2.22279C72.1868 2.267 72.2706 2.30502 72.3434 2.30469C72.8686 2.30103 73.4014 2.33781 73.9156 2.26094C74.5134 2.1724 75.1649 2.26354 75.6907 1.86025C75.7479 1.8163 75.8529 1.82741 75.9364 1.82302C76.6273 1.78738 77.3181 1.74318 78.0095 1.72392C78.702 1.70484 79.3594 1.50917 80.0859 1.57139C80.7503 1.62885 81.4485 1.58102 82.133 1.61074C82.523 1.64811 83.0093 1.8485 83.2845 1.69142C84.1176 1.21591 85.0693 1.89466 85.8591 1.37598C86.6907 1.7241 87.5149 1.26757 88.3455 1.39665C88.5772 1.43273 88.854 1.54862 89.0358 1.46771C90.0163 1.02983 91.1203 1.48654 92.0939 1.06967C92.7966 1.38655 93.4486 1.1327 94.1372 1.00192C94.6546 0.903541 95.2262 1.06441 95.7732 1.11012C96.1949 0.58468 96.8129 0.978528 97.3108 0.812034Z" fill="#DF687B"/>
</svg>
