<svg width="64" height="64" viewBox="0 0 64 64" fill="none" xmlns="http://www.w3.org/2000/svg">
<path fill-rule="evenodd" clip-rule="evenodd" d="M57.5951 21.43C56.2506 22.1268 54.9994 23.5035 54.474 24.8647L53.9846 26.1327L53.8374 24.7441C53.7566 23.9804 53.7874 23.1455 53.9063 22.8886C54.0452 22.5887 53.9585 22.2582 53.6636 21.9633C52.6277 20.9273 49.0406 22.5493 47.535 24.7341L46.6249 26.0544V24.3806C46.6249 22.1357 46.4744 21.828 45.3771 21.828C44.1581 21.828 41.3392 23.7263 39.9523 25.4809L38.8836 26.8329L38.6931 25.5626C38.5881 24.8638 38.5706 23.7849 38.6536 23.1647C38.8403 21.7736 38.6653 21.2726 37.9929 21.2726C37.3961 21.2726 36.9017 22.131 36.1913 24.3997C35.9158 25.2799 35.3481 26.4046 34.9299 26.8993C34.2225 27.7363 34.1367 27.7672 33.7018 27.3428C33.3727 27.0212 33.1799 26.1852 33.05 24.5131C32.9483 23.208 32.775 22.0496 32.6647 21.9394C32.3454 21.62 31.3928 22.6481 31.2617 23.4538C31.1872 23.9121 31.1509 23.7901 31.1653 23.13C31.1928 21.8527 30.7315 21.4767 29.419 21.7064C27.2633 22.0838 25.009 23.8201 24.1322 25.7781C23.8747 26.3538 23.5809 26.7418 23.4798 26.6407C23.3787 26.5396 23.296 25.657 23.296 24.6797C23.296 22.6054 22.9669 21.828 22.0884 21.828C21.3299 21.828 20.3232 22.8578 19.2378 24.7441L18.4388 26.1327L18.1594 24.3275C17.9242 22.8064 17.7875 22.509 17.2907 22.4382C16.4495 22.3182 16.3864 22.7328 16.7675 25.887C17.1438 29.0019 17.2621 29.3266 18.0192 29.3266C18.6532 29.3266 18.8348 29.0566 19.4822 27.1509C20.1002 25.3323 21.2777 23.4158 21.6396 23.6393C21.7868 23.7304 21.9073 24.6139 21.9073 25.6026C21.9073 27.8027 22.4733 29.3266 23.2904 29.3266C23.6087 29.3266 23.9408 29.1391 24.0286 28.91C24.1166 28.6809 24.3857 28.4934 24.6265 28.4934C25.4286 28.4934 27.3258 27.4058 28.5119 26.2661L29.6836 25.1402V27.3586C29.6836 31.2421 28.9277 33.5941 26.99 35.739C26.2332 36.5763 26.0652 36.9282 26.3062 37.1693C27.2449 38.108 29.4953 35.7326 30.4071 32.8401C30.6551 32.0533 30.9484 29.7848 31.0589 27.7991C31.1692 25.8134 31.28 24.6386 31.3047 25.1888C31.4075 27.4622 32.5525 29.3266 33.8456 29.3266C34.6963 29.3266 35.4548 28.6903 36.3704 27.2089L37.0225 26.1539L37.38 27.9199C37.8821 30.4011 38.6778 31.1482 39.4685 29.882C39.6593 29.5765 40.0734 29.3266 40.3886 29.3266C41.0801 29.3266 43.1742 28.0182 44.1043 27.0051C44.4747 26.6015 44.8558 26.2716 44.951 26.2716C45.0466 26.2716 45.2829 26.709 45.4762 27.2434C45.6695 27.778 46.0381 28.3248 46.2955 28.4587C47.1695 28.9133 49.2619 28.0252 50.9485 26.4838L52.5338 25.0349L52.3944 28.0835C52.2275 31.7342 51.5576 33.7546 49.9387 35.4904C48.6945 36.8249 48.6167 37.0949 49.4163 37.304C49.9401 37.4409 50.6434 36.9349 50.6434 36.9349L51.6031 35.9603C52.7693 34.2973 53.5911 31.8097 53.7741 29.3899L53.9269 27.3692L54.427 28.1912C55.296 29.6204 56.6141 29.9637 58.388 29.2224C59.6611 28.6906 61.3444 27.152 61.3444 26.5205C61.3444 25.7325 60.7075 25.882 59.5944 26.9318C58.4402 28.0204 57.5065 28.3265 56.5033 27.9452C55.5102 27.5678 55.6132 27.0026 56.7505 26.5913C57.9203 26.1683 59.8524 24.0418 60.1029 22.9017C60.234 22.3037 60.1485 21.9169 59.7999 21.5317C59.2134 20.8832 58.696 20.8596 57.5951 21.43ZM55.7898 25.1154C55.7898 25.8161 57.9805 24.2903 58.5918 23.1641C58.754 22.865 58.7407 22.6295 58.5554 22.5151C58.2377 22.3187 55.7898 24.6203 55.7898 25.1154ZM28.1431 24.7011C28.6849 24.1434 29.1282 23.581 29.1282 23.4519C29.1282 23.165 29.174 23.158 28.1509 23.6038C27.2966 23.9759 25.5178 25.7895 25.5178 26.2883C25.5178 26.7385 27.0844 25.7914 28.1431 24.7011ZM48.9161 26.2488C49.6538 25.8711 51.9017 23.7538 51.9017 23.4366C51.9017 22.8148 50.0942 23.8937 49.0431 25.1429C48.123 26.2363 48.0718 26.6813 48.9161 26.2488ZM44.3723 24.4292C44.2101 24.2339 44.1581 23.9437 44.2567 23.7843C44.6747 23.108 43.8332 23.5805 42.6712 24.6747C41.2659 25.9981 40.2589 27.6602 40.8627 27.6602C41.3462 27.6602 42.3724 26.9579 43.6324 25.7642C44.4056 25.0313 44.5922 24.6944 44.3723 24.4292Z" fill="#357A9B"/>
<path fill-rule="evenodd" clip-rule="evenodd" d="M28.578 9.1851C28.3233 9.49199 28.2881 10.5415 28.438 13.3432C28.6547 17.3852 28.9616 18.3309 29.8756 17.7713C30.316 17.5016 30.3874 16.9753 30.4552 13.5043C30.5352 9.41117 30.3938 8.7749 29.4059 8.7749C29.1379 8.7749 28.7652 8.95959 28.578 9.1851ZM34.3325 10.9942C33.5296 11.6255 31.6277 15.9227 31.6277 17.1047C31.6277 17.9796 32.3156 18.4061 32.9191 17.9054C33.4571 17.4588 36.3491 12.2595 36.3491 11.7388C36.3491 11.2922 35.632 10.4413 35.2556 10.4413C35.1346 10.4413 34.7191 10.6901 34.3325 10.9942ZM38.7006 15.4087C36.9078 16.2388 34.9604 17.771 34.9604 18.3512C34.9604 18.5458 35.1493 18.8616 35.3801 19.0532C35.7236 19.3385 36.1008 19.2665 37.4591 18.6569C38.3717 18.2473 39.7243 17.7324 40.465 17.5124C41.4225 17.228 41.9052 16.907 42.1355 16.4021L42.1764 16.3124C42.3699 15.8889 42.4565 15.6994 42.4191 15.5387C42.3889 15.4087 42.2774 15.2975 42.0757 15.0963L42.0227 15.0434C41.4087 14.4297 40.6294 14.5155 38.7006 15.4087ZM2.66872 15.7922C2.58818 16.0022 2.70649 16.8525 2.93145 17.6818C3.34721 19.2124 3.3461 19.3374 2.8373 28.8428C2.67872 31.8031 2.71149 32.163 3.18918 32.6937C3.67159 33.2292 3.88127 33.26 5.66038 33.0567C6.72963 32.9348 8.22934 32.8776 8.99309 32.9298C12.1294 33.1445 12.8074 33.0887 13.1245 32.5899C13.3445 32.2444 13.3487 31.9686 13.139 31.6364C12.5416 30.6894 12.0458 30.5983 9.36441 30.9427C7.85692 31.1365 6.36442 31.1821 5.79925 31.0518C4.82998 30.8285 4.82721 30.8235 4.85387 29.3135C5.02911 19.3218 5.00328 17.7379 4.64835 16.6901C4.35257 15.8175 4.1154 15.5611 3.54356 15.4947C3.1167 15.4453 2.75454 15.5683 2.66872 15.7922ZM12.3969 22.6445C10.0351 24.1423 7.74666 26.8212 7.74444 28.0907C7.74055 30.1084 11.0185 29.4649 13.2767 27.0051C13.6472 26.6015 14.0283 26.2716 14.1235 26.2716C14.2191 26.2716 14.4554 26.709 14.6487 27.2434C15.0486 28.3501 15.9573 29 16.4353 28.522C16.6511 28.3062 16.6053 27.9471 16.2731 27.2503C15.9907 26.6579 15.819 25.6412 15.8332 24.6427C15.8457 23.7426 15.7721 22.7412 15.6691 22.4171C15.3933 21.5481 13.9697 21.6469 12.3969 22.6445ZM13.4292 23.7843C13.3306 23.9437 13.3825 24.2339 13.5447 24.4292C13.7647 24.6944 13.5781 25.0313 12.8049 25.7642C11.5448 26.9579 10.5186 27.6602 10.0351 27.6602C9.44773 27.6602 10.395 26.0953 11.8209 24.7094C12.9648 23.5977 13.8641 23.0803 13.4292 23.7843ZM18.9818 31.104C17.6501 31.6842 14.87 34.9239 13.9647 36.951C13.5214 37.9427 13.0965 38.7565 13.0201 38.7595C12.9437 38.7623 12.5688 37.9336 12.1869 36.9182C11.3127 34.5937 10.3964 33.8019 9.16917 34.3104C7.79748 34.8783 7.46143 36.0056 7.49587 39.9221C7.51226 41.8084 7.60613 44.1016 7.70417 45.0181C7.87025 46.5722 7.93301 46.6903 8.63621 46.7714C9.24915 46.8422 9.42412 46.7242 9.57048 46.1409C9.66935 45.7463 9.61131 44.8706 9.44134 44.1952C8.8059 41.6718 9.2111 35.9426 9.99096 36.4247C10.1282 36.5094 10.6569 37.4778 11.166 38.5765C12.6899 41.8659 13.68 42.0914 14.6931 39.38C15.641 36.8432 16.6308 35.2344 18.0753 33.8835L18.1784 33.7869C18.9692 33.0465 19.4755 32.5724 19.801 32.6746C20.3805 32.8564 20.387 34.8648 20.4049 40.449L20.4062 40.8575C20.4207 45.2841 20.452 49.5533 20.4757 50.3446C20.5387 52.4553 21.6979 53.3846 22.5789 52.0307C22.9355 51.4824 22.9357 51.0817 22.5808 48.7674C22.2881 46.8572 22.1967 44.188 22.25 39.0953L22.3239 32.0616L21.5446 31.3884C20.6659 30.6291 20.1924 30.5766 18.9818 31.104ZM58.8279 45.7293C58.0966 46.4606 58.2261 47.3115 59.1762 48.0181C59.8846 48.5452 59.9613 48.5499 60.6342 48.1089C61.5565 47.5046 61.6046 46.204 60.727 45.5894C59.9071 45.0148 59.5133 45.0439 58.8279 45.7293Z" fill="#357A9B"/>
<path d="M24.9992 48.0504C25.1956 48.0504 25.3919 48.0137 25.5883 47.9403C28.4599 46.9372 29.9939 44.7966 31.0371 43.9648C31.4911 46.1299 32.1047 47.1085 33.0988 47.1085C33.2092 47.1085 33.3197 47.0963 33.4301 47.0718C33.7124 47.0229 33.7983 46.5336 33.7983 46.2522C33.7983 45.714 32.8779 45.6651 32.7674 43.8303C32.7674 43.2921 32.8411 42.8028 32.8411 42.3257C32.9024 42.1667 32.927 42.0077 32.927 41.8487C32.927 41.5307 32.8165 41.2371 32.6079 40.9435C32.6692 40.76 32.7674 40.5032 32.7674 40.1729C32.7674 39.6836 32.4852 38.8396 31.6261 38.8396C29.0244 38.8396 23.1339 44.0627 23.1339 46.7048C23.1339 47.5121 24.1647 48.0504 24.9992 48.0504ZM25.711 46.081L25.441 46.0688C25.4778 44.5153 28.3495 41.9343 29.6626 41.0291C29.8099 40.9313 29.9817 40.8946 30.2026 40.8212V40.8457C30.2026 41.2371 30.2026 41.4476 30.2026 41.4476C30.2026 41.4476 30.2026 42.13 30.5094 42.2768C30.0062 43.7202 26.4228 46.0198 25.9319 46.0688L25.711 46.081Z" fill="#357A9B"/>
<path d="M52.6542 48.6197C53.6606 48.6197 56.4831 45.4272 56.4831 44.6932C56.4095 42.1734 51.8566 42.1734 51.8566 40.4609C51.8566 38.9564 55.4645 37.3295 56.6549 37.3295C57.3913 37.3295 57.4035 37.7944 58.0417 37.7944C58.6062 37.7944 58.9498 37.3907 58.9498 36.5711C58.9498 36.192 58.3239 36.0452 57.649 36.0452C56.2622 36.0452 49.8071 38.0512 49.8071 40.5955C49.8071 43.152 54.3846 43.5679 54.3846 44.7055C54.3846 45.8186 51.9793 47.1397 51.9793 47.8491C51.9793 48.1916 52.2861 48.6197 52.6542 48.6197Z" fill="#357A9B"/>
<path d="M43.3023 47.4087C45.229 47.4087 47.9902 45.7819 48.9352 43.8125C48.972 43.7269 48.9843 43.6412 48.9843 43.5679C48.9843 43.2376 48.7266 43.0174 48.3952 43.0174C48.0762 43.0174 47.6957 43.2131 47.4135 43.6902C47.4135 43.6902 46.0144 45.7329 43.7809 45.7329H43.6214C42.0137 45.6718 41.9769 44.3018 41.9769 44.3018C43.7441 44.2406 47.3889 41.3539 47.3889 38.7851C47.3644 37.9044 47.0085 37.2561 46.2967 37.2561C43.4864 37.2561 40.7865 40.3631 40.3202 42.626C40.1239 43.5556 39.6698 43.4455 39.1544 43.8125C39.1666 44.5097 39.8293 44.5342 40.1852 44.8155C40.7129 46.5525 41.891 47.4087 43.3023 47.4087ZM41.9769 42.5281C42.1733 41.623 43.2164 40.2897 43.83 39.7881C44.0264 39.6169 44.8731 38.9441 45.4254 38.8707H45.4622C45.6708 38.8707 45.769 38.9931 45.769 39.1888C45.769 40.0328 44.0509 42.2468 41.9769 42.5281Z" fill="#357A9B"/>
<path d="M37.8248 49.4981L38.2375 49.4313C38.7296 49.3461 38.9962 48.9209 39.0362 48.143L38.5034 46.8712C37.7051 44.881 37.2196 42.7418 37.0485 40.4791C36.9904 39.6444 36.9759 39.0973 37.0089 38.2182C38.4688 38.4723 40.2833 38.6261 40.5513 38.6074C40.6584 38.5999 40.7522 38.5934 40.8317 38.5752C41.2068 38.549 41.3893 38.2695 41.3916 37.7229C41.3606 37.4709 41.242 37.314 41.0223 37.253C40.8723 37.2253 40.6696 37.2141 40.4284 37.2309C39.9595 37.2635 39.6856 37.188 39.2038 37.1023C38.3136 36.9439 37.4658 36.889 36.9031 36.6994L37.0002 35.9205C37.1242 35.1875 37.265 34.5042 37.396 33.8724C37.5413 33.2523 37.5963 32.6894 37.5611 32.1835C37.5303 31.7409 37.4698 31.4528 37.3789 31.3067C37.2273 31.0631 37.0166 30.938 36.7487 30.9567C36.387 30.9819 36.1162 31.1532 35.9346 31.4454C35.7772 31.6978 35.6429 32.0884 35.5316 32.6172C35.407 33.1468 35.3519 33.7098 35.3514 34.2817C35.3508 34.8536 35.3182 35.3931 35.294 36.3987C35.2323 36.4792 34.1254 36.3364 34.1254 36.3364C34.1254 36.3364 32.9071 36.0868 32.7748 36.1268C32.2155 36.2961 32.4448 37.5731 32.9941 37.5348C33.3156 37.5124 35.0468 38.0265 35.2568 37.9484L35.3008 38.5803C35.3124 39.5199 35.3339 40.4079 35.392 41.2425C35.5461 43.4556 35.8865 45.2491 36.3862 46.6248C37.0594 48.5603 37.5435 49.5177 37.8248 49.4981Z" fill="#357A9B"/>
</svg>
