<svg width="25" height="24" viewBox="0 0 25 24" fill="none" xmlns="http://www.w3.org/2000/svg">
<path d="M12.5 1.5C6.70156 1.5 2 6.20156 2 12C2 17.7984 6.70156 22.5 12.5 22.5C18.2984 22.5 23 17.7984 23 12C23 6.20156 18.2984 1.5 12.5 1.5ZM13.3555 14.5969C12.3266 16.0453 10.2594 16.4672 8.64688 15.8461C7.02969 15.2297 5.88125 13.5211 6.01953 11.7797C6.05469 9.64922 8.01641 7.78125 10.1469 7.85391C11.1687 7.80703 12.1297 8.25 12.9125 8.87578C12.5773 9.25547 12.2328 9.62109 11.8625 9.96094C10.9227 9.31172 9.58437 9.12656 8.64453 9.87656C7.29922 10.807 7.23828 13.0031 8.53203 14.0039C9.79063 15.1453 12.1695 14.5781 12.5187 12.8297C11.7312 12.818 10.9391 12.8297 10.1516 12.8039C10.1492 12.3328 10.1469 11.8641 10.1492 11.393C11.4664 11.3883 12.7859 11.3859 14.1055 11.3977C14.1828 12.5062 14.0352 13.6828 13.3555 14.5969ZM19.0391 12.5742C18.6453 12.5789 18.2516 12.5813 17.8578 12.5836C17.8531 12.9773 17.8508 13.3711 17.8508 13.7648H16.6719C16.6672 13.3711 16.6672 12.9797 16.6648 12.5859C16.2711 12.5813 15.8773 12.5789 15.4836 12.5742V11.4C15.8773 11.3953 16.2711 11.393 16.6648 11.393C16.6672 10.9992 16.6719 10.6055 16.6742 10.2117H17.8508L17.8578 11.393C18.2516 11.3977 18.6453 11.3977 19.0391 11.4V12.5742Z" fill="white"/>
</svg>
