<svg width="64" height="64" viewBox="0 0 64 64" fill="none" xmlns="http://www.w3.org/2000/svg">
<path fill-rule="evenodd" clip-rule="evenodd" d="M43.5922 7.83205C36.0571 1.93543 24.8635 3.03483 18.5226 9.47889C11.9905 16.1168 11.3203 29.022 19.2758 35.349C23.8749 39.0068 31.6744 41.1077 37.5055 39.3936C48.3763 36.199 54.047 22.9253 47.966 12.5643" fill="white"/>
<path d="M43.5922 7.83205C36.0571 1.93543 24.8635 3.03483 18.5226 9.47889C11.9905 16.1168 11.3203 29.022 19.2758 35.349C23.8749 39.0068 31.6744 41.1077 37.5055 39.3936C48.3763 36.199 54.047 22.9253 47.966 12.5643" stroke="#DF687B" stroke-width="5" stroke-miterlimit="1.5" stroke-linecap="round" stroke-linejoin="round"/>
<path fill-rule="evenodd" clip-rule="evenodd" d="M40.5468 38.1807C38.7446 39.1524 36.6774 39.6295 35.741 39.7884C36.6357 43.4003 38.2361 47.7612 39.6475 51.1931C40.5285 53.3363 41.6201 55.294 42.6036 57.3919C43.3814 59.0518 45.709 61.1832 47.2626 58.9853C48.4518 57.3033 47.4248 54.7395 46.8409 53.0216C45.2287 48.2746 42.4188 42.8068 40.5468 38.1807Z" fill="#DF687B" stroke="#DF687B" stroke-width="5" stroke-miterlimit="1.5" stroke-linecap="round" stroke-linejoin="round"/>
<path d="M33.3101 12.488C34.4235 12.4797 35.606 12.7314 36.6647 13.2256C37.8496 13.7786 38.8798 14.6354 39.4849 15.7712" stroke="#DF687B" stroke-width="5" stroke-miterlimit="1.5" stroke-linecap="round" stroke-linejoin="round"/>
</svg>
